Coordinates
version=1
nRows=9
nColumns=42
inDegrees=yes

Units are S.I. units (second, meters, Newtons, ...)
If the header above contains a line with 'inDegrees', this indicates whether rotational values are in degrees (yes) or radians (no).

endheader
time	pelvis_tilt	pelvis_list	pelvis_rotation	pelvis_tx	pelvis_ty	pelvis_tz	hip_flexion_r	hip_adduction_r	hip_rotation_r	knee_angle_r	knee_adduction_r	knee_angle_r_beta	ankle_angle_r	subtalar_angle_r	mtp_angle_r	hip_flexion_l	hip_adduction_l	hip_rotation_l	knee_angle_l	knee_adduction_l	knee_angle_l_beta	ankle_angle_l	subtalar_angle_l	mtp_angle_l	lumbar_extension	lumbar_bending	lumbar_rotation	arm_flex_r	arm_add_r	arm_rot_r	elbow_flex_r	pro_sup_r	wrist_flex_r	wrist_dev_r	arm_flex_l	arm_add_l	arm_rot_l	elbow_flex_l	pro_sup_l	wrist_flex_l	wrist_dev_l
      6.50000000	      1.51396299	    -10.02166446	    -13.55236642	     -0.30359598	      0.84738131	      0.28228611	     -2.02012907	      6.20894246	    -17.78074983	     20.49742901	     -2.78421948	      0.35774762	     16.01693526	     22.46171151	     -7.50007693	     14.87243027	    -18.24454156	    -28.04290247	     34.02614700	     -5.21148998	      0.59386830	     17.33088687	     26.29470093	     -7.50007693	    -25.02631931	      8.73387891	      3.02351137	    -11.62644907	     -3.54307000	    -11.29986156	    106.90079952	     90.00000001	      0.00000000	      0.00000000	     -0.60850527	     -8.58385491	    -16.44579137	     48.46059177	     90.00000001	      0.00000000	      0.00000000
      6.51000000	      2.11305518	     -9.88135515	    -14.31372263	     -0.30084478	      0.85014325	      0.28077533	     -2.60343836	      5.68612439	    -17.25128692	     20.75108411	     -2.86315533	      0.36217474	     14.76585529	     21.65896083	     -7.50007392	     12.90338301	    -17.79193321	    -29.55905304	     32.53467940	     -4.99744640	      0.56783728	     16.90214287	     27.45779457	     -7.50007392	    -25.70856882	      8.18511252	      3.52224668	    -11.66867849	     -3.56942002	    -11.03526267	    107.15988738	     90.00000001	      0.00000000	      0.00000000	     -0.48592228	     -8.66425832	    -16.47528734	     48.56756552	     90.00000001	      0.00000000	      0.00000000
      6.52000000	      1.96794956	     -9.97544145	    -14.78836246	     -0.29843542	      0.85173461	      0.27911111	     -2.34422438	      5.68958094	    -17.24116636	     21.08478069	     -3.12613798	      0.36799885	     14.05325996	     21.46068021	     -7.50007301	     12.18704469	    -17.81368798	    -30.11350719	     31.71217179	     -4.58379098	      0.55348181	     16.85508412	     27.71932225	     -7.50007301	    -25.62500545	      8.22424121	      3.73932911	    -11.74711813	     -3.58031431	    -10.83112157	    107.44776500	     90.00000001	      0.00000000	      0.00000000	     -0.49414552	     -8.73783845	    -16.50315131	     48.65971131	     90.00000001	      0.00000000	      0.00000000
      6.53000000	      2.29245162	     -9.92794551	    -15.33292646	     -0.29572211	      0.85393406	      0.27739311	     -2.64855015	      5.29184825	    -16.88787842	     21.32768539	     -3.08243486	      0.37223833	     13.15920583	     20.97220695	     -7.50007081	     10.75980522	    -17.47959826	    -31.47169519	     30.46646805	     -4.40389163	      0.53174018	     16.43515286	     28.69311204	     -7.50007081	    -25.98293827	      7.95730793	      3.99773823	    -11.75236803	     -3.53252264	    -10.69451162	    107.67855347	     90.00000001	      0.00000000	      0.00000000	     -0.49159958	     -8.83124873	    -16.53340537	     48.75405714	     90.00000001	      0.00000000	      0.00000000
      6.54000000	      2.15179451	    -10.03089927	    -15.71997571	     -0.29335276	      0.85537814	      0.27567911	     -2.37028409	      5.34401626	    -16.80572403	     21.68475124	     -3.39849439	      0.37847031	     12.54056251	     20.78096685	     -7.50007004	     10.07156333	    -17.47245279	    -32.00022289	     29.61004507	     -3.96684801	      0.51679278	     16.36919321	     28.99387923	     -7.50007004	    -25.89224913	      8.04162626	      4.19288010	    -11.82255931	     -3.54277136	    -10.51922770	    107.96273991	     90.00000001	      0.00000000	      0.00000000	     -0.49541006	     -8.90633099	    -16.56059001	     48.87884657	     90.00000001	      0.00000000	      0.00000000
      6.55000000	      2.31288488	    -10.01135684	    -16.21122028	     -0.29083732	      0.85716361	      0.27401959	     -2.40118925	      5.07691927	    -16.45356085	     22.05563949	     -3.49133201	      0.38494353	     11.70833300	     20.39430526	     -7.50006886	      8.93343472	    -17.21116241	    -33.00898070	     28.53036528	     -3.60921001	      0.49794881	     16.00769814	     29.62471365	     -7.50006886	    -26.08113928	      7.88095285	      4.40378370	    -11.83011192	     -3.49047653	    -10.40264680	    108.19722651	     90.00000001	      0.00000000	      0.00000000	     -0.51439442	     -9.01614597	    -16.59611843	     49.01519321	     90.00000001	      0.00000000	      0.00000000
      6.56000000	      2.60814645	    -10.01506272	    -16.58350311	     -0.28816311	      0.85900405	      0.27222516	     -2.65976003	      4.81213515	    -15.92256345	     22.31435473	     -3.49484259	      0.38945896	     11.07060027	     19.67383121	     -7.50006651	      7.68175764	    -16.84108887	    -34.04725676	     27.36048996	     -3.40249497	      0.47753063	     15.54401862	     30.52007326	     -7.50006651	    -26.37909637	      7.74334751	      4.56399974	    -11.82584589	     -3.46738150	    -10.34759789	    108.36920834	     90.00000001	      0.00000000	      0.00000000	     -0.52002842	     -9.12286336	    -16.59803983	     49.17233898	     90.00000001	      0.00000000	      0.00000000
      6.57000000	      2.45132701	    -10.14945500	    -16.80129762	     -0.28567716	      0.86003714	      0.27040821	     -2.38195510	      4.91216390	    -15.76533326	     22.67296227	     -3.74797377	      0.39571784	     10.65635964	     19.52451336	     -7.50006605	      7.19700517	    -16.82885932	    -34.37911452	     26.73065189	     -3.04262951	      0.46653789	     15.54059202	     30.59479748	     -7.50006605	    -26.21606384	      7.96670763	      4.55874133	    -11.83200160	     -3.42161370	    -10.29010510	    108.56918189	     90.00000001	      0.00000000	      0.00000000	     -0.60167596	     -9.21854482	    -16.62527502	     49.25635069	     90.00000001	      0.00000000	      0.00000000
      6.58000000	      2.46966434	    -10.18167334	    -17.15812547	     -0.28328101	      0.86122045	      0.26877913	     -2.16654409	      4.86450588	    -15.39072956	     23.20132939	     -4.06857605	      0.40493959	      9.99671090	     19.19966984	     -7.50006550	      6.39222961	    -16.61899215	    -34.84620470	     25.85734588	     -2.60097081	      0.45129582	     15.38480810	     30.79712281	     -7.50006550	    -26.24114650	      7.95173768	      4.77256853	    -11.86444480	     -3.40884046	    -10.22584930	    108.70925653	     90.00000001	      0.00000000	      0.00000000	     -0.62654888	     -9.31781466	    -16.66248102	     49.44892511	     90.00000001	      0.00000000	      0.00000000
